# xmcd
#
# Track frame offsets:
#	150
#	2620
#	13305
#	27605
#	45772
#	61390
#	75437
#	92762
#	107967
#	123377
#	143787
#	146955
#	163172
#	179215
#
# Disc length: 2549 seconds
#
# Revision: 6
# Processed by: cddbd v1.5.2PL0 Copyright (c) Steve Scherf et al.
# Submitted via: audiograbber 1.83.01
#
DISCID=c309f30e
DTITLE=Lari White - Don't Fence Me In
DYEAR=1996
DGENRE=Country
TTITLE0=Don't Fence Me In (with Shelby Lynne and Trisha Yearwood)
TTITLE1=Wild At Heart
TTITLE2=Ready, Willing And Able
TTITLE3=Ghost Of A Chance
TTITLE4=The Test
TTITLE5=Ain't Gonna Worry About Love No More
TTITLE6=Next To Love
TTITLE7=Something Blue
TTITLE8=Do It Again
TTITLE9=I've Been Waiting For Your Love
TTITLE10=Soul Searchin' Blues
TTITLE11=Woman Of The World
TTITLE12=Don't Fence Me In (Reprise)
TTITLE13=I've Got To Go It Alone (Bonus Track)
EXTD=
EXTT0=
EXTT1=
EXTT2=
EXTT3=
EXTT4=
EXTT5=
EXTT6=
EXTT7=
EXTT8=
EXTT9=
EXTT10=
EXTT11=
EXTT12=
EXTT13=
PLAYORDER=
